<svg xmlns="http://www.w3.org/2000/svg" viewBox="0 0 492.92 407.33"><defs><style>.cls-1{fill:#ffc54e;}.cls-2{fill:#febf33;}.cls-3{fill:#e5a812;}.cls-4{fill:#69502f;}.cls-5{fill:#03bfd7;}</style></defs><title>Asset 16</title><g id="Layer_2" data-name="Layer 2"><g id="emoticons"><path class="cls-1" d="M467.3,214.83c0,106.31-61.91,192.5-220.86,192.5S25.58,321.15,25.58,214.83s61.9-192.5,220.86-192.5S467.3,108.52,467.3,214.83Z"/><path class="cls-2" d="M474.14,18.79c-12.6-12.59-111.37-39.47-161.28,9.4,95.47,18.27,141.52,77.55,152.05,151.69C513.52,129.93,486.72,31.37,474.14,18.79Zm-455.37,0C6.2,31.37-20.6,129.93,28,179.88,38.53,105.74,84.58,46.46,180.05,28.19,130.14-20.68,31.37,6.19,18.78,18.79Z"/><path class="cls-3" d="M452.45,40.48c-10.18-6.9-68.82-19.48-104.65-3.1,57.83,19.94,92.43,58.21,108.55,105.92C471.24,107.6,459.23,50.49,452.45,40.48Zm-412,0c-6.79,10-18.79,67.12-3.89,102.83C52.7,95.6,87.29,57.32,145.12,37.39,109.29,21,50.65,33.58,40.47,40.48Z"/><path class="cls-3" d="M217.58,23.35q-16.67,1.2-31.72,3.79V81.39a15.86,15.86,0,0,0,31.72,0Zm28.88,90.89a15.86,15.86,0,0,0,15.86-15.86V22.64q-7.77-.3-15.86-.3t-15.86.3V98.38A15.86,15.86,0,0,0,246.46,114.24Zm0,130c-16.54,0-30,5.05-30,9.45,0,7.07,20.84,22.45,30,22.45s30-15.39,30-22.45C276.4,249.3,263,244.25,246.44,244.25Zm28.9-220.9v58a15.86,15.86,0,0,0,31.71,0V27.14Q292,24.57,275.34,23.35Z"/><path class="cls-4" d="M110.58,310.19,59.84,323.79a10.63,10.63,0,0,0,5.5,20.54l50.74-13.59a10.63,10.63,0,0,0-5.5-20.54Zm5.5-33.32L65.35,263.28a10.63,10.63,0,1,0-5.5,20.54l50.74,13.59a10.63,10.63,0,0,0,5.5-20.54Zm317,46.91-50.74-13.59a10.63,10.63,0,1,0-5.5,20.54l50.74,13.59a10.63,10.63,0,0,0,5.5-20.54Zm-50.74-26.37,50.74-13.59a10.63,10.63,0,1,0-5.5-20.54l-50.74,13.59a10.63,10.63,0,0,0,5.5,20.54Z"/><path class="cls-4" d="M153.28,211.33a34.72,34.72,0,1,0-34.72,34.72A34.72,34.72,0,0,0,153.28,211.33Z"/><path class="cls-4" d="M409,211.33a34.72,34.72,0,1,0-34.72,34.72A34.72,34.72,0,0,0,409,211.33Z"/><path class="cls-4" d="M300.91,346.14h-109a15,15,0,0,1,0-30h109a15,15,0,0,1,0,30Z"/><path class="cls-5" d="M123.84,93.85a59.08,59.08,0,0,1-118.16,0C5.69,39.34,64.76,2,64.76,2S123.84,39.34,123.84,93.85Z"/></g></g></svg>